<svg width="512" height="512" viewBox="0 0 512 512" fill="none" xmlns="http://www.w3.org/2000/svg">
<rect width="512" height="512" rx="128" fill="#0F172A"/>
<circle cx="256" cy="256" r="192" fill="url(#paint0_linear_451_2)"/>
<mask id="path-3-outside-1_451_2" maskUnits="userSpaceOnUse" x="66" y="253.854" width="380" height="85" fill="black">
<rect fill="white" x="66" y="253.854" width="380" height="85"/>
<path d="M444 256.833C444 285.171 437.729 312.045 426.5 336.143H282.586C275.766 329.6 266.533 308 255.502 308C255.455 308 255.408 308.001 255.362 308.002C255.316 308.001 255.27 308 255.224 308C244.192 308 234.958 329.6 228.139 336.143H85.5C74.2707 312.045 68 285.171 68 256.833C68 256.507 68.0013 256.18 68.0029 255.854H443.997C443.999 256.18 444 256.507 444 256.833Z"/>
</mask>
<path d="M444 256.833C444 285.171 437.729 312.045 426.5 336.143H282.586C275.766 329.6 266.533 308 255.502 308C255.455 308 255.408 308.001 255.362 308.002C255.316 308.001 255.27 308 255.224 308C244.192 308 234.958 329.6 228.139 336.143H85.5C74.2707 312.045 68 285.171 68 256.833C68 256.507 68.0013 256.18 68.0029 255.854H443.997C443.999 256.18 444 256.507 444 256.833Z" fill="url(#paint1_linear_451_2)"/>
<path d="M444 256.833H446V256.833L444 256.833ZM426.5 336.143V338.143H427.775L428.313 336.987L426.5 336.143ZM282.586 336.143L281.201 337.586L281.782 338.143H282.586V336.143ZM255.502 308L255.502 306H255.502V308ZM255.362 308.002L255.329 310.002L255.362 310.002L255.396 310.002L255.362 308.002ZM255.224 308L255.224 306H255.224V308ZM228.139 336.143V338.143H228.943L229.523 337.586L228.139 336.143ZM85.5 336.143L83.6872 336.987L84.2255 338.143H85.5V336.143ZM68 256.833L66 256.833V256.833H68ZM68.0029 255.854V253.854H66.0131L66.003 255.844L68.0029 255.854ZM443.997 255.854L445.997 255.844L445.987 253.854H443.997V255.854ZM444 256.833H442C442 284.873 435.796 311.459 424.687 335.298L426.5 336.143L428.313 336.987C439.663 312.631 446 285.469 446 256.833H444ZM426.5 336.143V334.143H282.586V336.143V338.143H426.5V336.143ZM282.586 336.143L283.971 334.699C282.441 333.232 280.695 330.829 278.684 327.863C276.722 324.97 274.535 321.584 272.239 318.439C269.938 315.288 267.425 312.231 264.718 309.948C262.021 307.675 258.929 306 255.502 306L255.502 308L255.502 310C257.59 310 259.789 311.025 262.139 313.007C264.479 314.979 266.769 317.73 269.008 320.797C271.251 323.869 273.341 327.11 275.373 330.108C277.355 333.031 279.321 335.782 281.201 337.586L282.586 336.143ZM255.502 308V306C255.433 306 255.352 306.002 255.329 306.002L255.362 308.002L255.396 310.002C255.464 310.001 255.478 310 255.502 310V308ZM255.362 308.002L255.396 306.002C255.373 306.002 255.293 306 255.224 306L255.224 308L255.224 310C255.248 310 255.26 310.001 255.329 310.002L255.362 308.002ZM255.224 308V306C251.796 306 248.704 307.675 246.008 309.948C243.3 312.23 240.787 315.288 238.487 318.438C236.19 321.584 234.003 324.97 232.041 327.863C230.03 330.829 228.284 333.232 226.754 334.699L228.139 336.143L229.523 337.586C231.403 335.782 233.369 333.031 235.352 330.108C237.384 327.11 239.474 323.869 241.717 320.797C243.957 317.73 246.246 314.978 248.586 313.006C250.936 311.025 253.135 310 255.224 310V308ZM228.139 336.143V334.143H85.5V336.143V338.143H228.139V336.143ZM85.5 336.143L87.3128 335.298C76.2042 311.459 70 284.873 70 256.833H68H66C66 285.469 72.3371 312.631 83.6872 336.987L85.5 336.143ZM68 256.833L70 256.833C70 256.512 70.0012 256.189 70.0029 255.865L68.0029 255.854L66.003 255.844C66.0013 256.172 66 256.502 66 256.833L68 256.833ZM68.0029 255.854V257.854H443.997V255.854V253.854H68.0029V255.854ZM443.997 255.854L441.997 255.865C441.999 256.189 442 256.512 442 256.833L444 256.833L446 256.833C446 256.502 445.999 256.172 445.997 255.844L443.997 255.854Z" fill="#24244B" mask="url(#path-3-outside-1_451_2)"/>
<path d="M201 177L205.5 247.5L159 152L201 177Z" fill="url(#paint2_linear_451_2)" fill-opacity="0.4"/>
<path d="M311.5 177L307 247.5L353.5 152L311.5 177Z" fill="url(#paint3_linear_451_2)" fill-opacity="0.4"/>
<defs>
<linearGradient id="paint0_linear_451_2" x1="350" y1="308" x2="91.5" y2="132" gradientUnits="userSpaceOnUse">
<stop stop-color="#5050A5"/>
<stop offset="1" stop-color="#1F1F3F"/>
</linearGradient>
<linearGradient id="paint1_linear_451_2" x1="104.5" y1="253.5" x2="471.5" y2="367" gradientUnits="userSpaceOnUse">
<stop stop-color="#A7A4A4"/>
<stop offset="0.25" stop-color="#A7A4A4"/>
<stop offset="0.5625" stop-color="white"/>
<stop offset="0.745192" stop-color="#A7A4A4"/>
<stop offset="1" stop-color="#A7A4A4"/>
</linearGradient>
<linearGradient id="paint2_linear_451_2" x1="201" y1="177" x2="177" y2="190.856" gradientUnits="userSpaceOnUse">
<stop stop-color="#1D1D3A"/>
<stop offset="0.524038" stop-color="#26264D"/>
<stop offset="1" stop-color="#2F2F62" stop-opacity="0"/>
</linearGradient>
<linearGradient id="paint3_linear_451_2" x1="311.5" y1="177" x2="335.5" y2="190.856" gradientUnits="userSpaceOnUse">
<stop stop-color="#1D1D3A"/>
<stop offset="0.524038" stop-color="#26264D"/>
<stop offset="1" stop-color="#2F2F62" stop-opacity="0"/>
</linearGradient>
</defs>
</svg>
